<svg width="683" height="683" viewBox="0 0 683 683" fill="none" xmlns="http://www.w3.org/2000/svg">
<path d="M304.666 59.3334C232.266 69.2001 168.8 104.533 121.066 161.333C101.466 184.667 81.733 220.933 71.4663 252.133C61.4663 282.667 57.333 308.4 57.333 341.333C57.333 374.267 61.4663 400 71.4663 430.533C91.5997 492 132.4 544.4 188.666 581.333C230.4 608.667 292.666 626.8 338.933 625.2C350.133 624.667 352.133 624.267 356.8 621.067C359.6 619.067 363.466 615.2 365.333 612.4C368.133 608.267 368.666 606 368.666 597.333C368.666 588.667 368.133 586.4 365.333 582.267C363.466 579.467 359.733 575.733 356.933 573.733C352.4 570.533 350 570.133 330.933 568.533C306.933 566.667 304.133 566.267 286.4 561.867C222 545.867 167.733 502.4 138 442.933C106 379.067 106 303.6 138 239.733C160 195.467 195.2 160.4 239.733 138C341.733 86.6667 466.8 119.867 530.266 214.933C552 247.6 564.4 283.333 568 323.467C570.133 346.533 567.733 364.133 560.4 381.867C553.066 399.467 539.466 416 526.533 422.8C517.466 427.6 503.2 427.2 493.6 422C485.466 417.6 481.333 413.067 476.533 403.6C469.733 390.4 469.333 384.933 469.333 308.8C469.333 256.933 468.933 236.8 467.733 232.8C464.4 222 452 213.333 439.866 213.333C430.4 213.467 417.333 222.933 415.2 231.333C414.8 233.2 414.133 234.667 413.733 234.667C413.466 234.667 406.4 231.333 398.266 227.333C380.266 218.4 366.666 214.8 347.866 213.733C288.4 210.4 234.933 248.4 218 306.133C213.2 322.267 212 347.333 215.333 364.667C224.133 411.6 259.2 450.267 305.2 464C345.333 475.867 391.066 466.267 423.2 439.2L428.4 434.8L433.6 442.4C443.2 456.133 454.666 466 470.266 473.867C488.266 482.8 514.666 485.867 533.333 480.933C570.666 471.2 602.666 436.933 617.733 390.667C635.333 336.533 621.733 255.2 584.8 194.667C542.133 124.8 473.333 77.0668 393.733 61.8668C378.266 58.9334 370.8 58.2668 346.666 57.8668C327.333 57.6001 313.6 58.0001 304.666 59.3334ZM359.333 272.667C383.466 278.933 403.733 299.2 410 323.333C416.266 347.467 409.066 373.6 391.333 391.333C363.6 419.067 319.066 419.067 291.333 391.333C269.066 369.067 264.133 335.467 279.066 307.467C287.333 291.6 305.333 277.467 322.8 272.8C332.4 270.267 349.6 270.133 359.333 272.667Z" fill="#FF6E39"/>
</svg>
