<svg width="70" height="70" viewBox="0 0 34 34" fill="#000000" xmlns="http://www.w3.org/2000/svg">
<path d="M17 0C7.4375 0 0 7.67742 0 17.5484C0 29.0645 10.0938 34 11.6875 34C12.75 34 12.75 33.4516 12.75 32.9032V30.1613C9.03125 31.2581 7.4375 29.0645 6.90625 27.4194C6.90625 27.4194 6.90625 26.871 5.84375 25.7742C5.3125 25.2258 3.1875 24.129 5.3125 24.129C6.90625 24.129 7.96875 26.3226 7.96875 26.3226C9.5625 28.5161 11.6875 27.9677 12.75 27.4194C12.75 26.3226 13.8125 25.2258 13.8125 25.2258C9.5625 24.6774 6.375 23.0323 6.375 17C6.375 14.8065 6.90625 13.1613 7.96875 12.0645C7.96875 12.0645 6.90625 9.87097 7.96875 7.12903C7.96875 7.12903 10.625 7.12903 12.75 9.32258C14.3438 8.22581 19.6562 8.22581 21.25 9.32258C23.375 7.12903 26.0312 7.12903 26.0312 7.12903C27.0938 10.9677 26.0312 12.0645 26.0312 12.0645C27.0938 13.1613 27.625 14.8065 27.625 17C27.625 23.0323 23.9062 24.6774 20.1875 25.2258C20.7188 25.7742 21.25 26.871 21.25 28.5161V32.9032C21.25 33.4516 21.25 34 22.3125 34C23.9062 34 34 29.0645 34 17.5484C34 7.67742 26.5625 0 17 0Z" fill="#ffffff"/>
</svg>
