<svg width="559" height="559" viewBox="0 0 559 559" fill="none" xmlns="http://www.w3.org/2000/svg">
<g clip-path="url(#clip0_12_6)">
<path d="M-5 279.492V279.514L-4.99982 279.535L-2.66796 550.938C-2.60665 558.074 3.19546 563.826 10.3316 563.826H279.333H279.354L279.376 563.826L550.779 561.494C557.915 561.433 563.667 555.631 563.667 548.495V279.492V8.02557C563.667 0.845868 557.847 -4.97443 550.667 -4.97443H288H8C0.820305 -4.97443 -5 0.845869 -5 8.02557V279.492ZM8 5.02557H288H550.667C552.324 5.02557 553.667 6.36872 553.667 8.02557V279.492V548.495C553.667 550.141 552.339 551.48 550.693 551.494L279.333 553.826H279.311H10.3316C8.68474 553.826 7.34582 552.499 7.33167 550.852L5 279.492V279.471V8.02557C5 6.36872 6.34315 5.02557 8 5.02557ZM359.751 234.759L359.745 234.759L254.927 234.504C253.823 234.501 252.809 233.892 252.289 232.918L250.42 229.421C250.418 229.418 250.416 229.414 250.414 229.411C237.619 205.235 212.084 185.155 185.303 178.132C180.683 176.851 172.379 175.902 164.649 175.387C156.928 174.872 148.797 174.725 144.601 175.346L144.568 175.351L144.536 175.356C90.9711 184.005 54.0601 226.851 54.2 280.172L54.2 280.174C54.3401 327.947 86.0385 368.546 132.698 381.12C139.267 382.891 149.152 383.692 158.667 383.692C168.181 383.692 178.066 382.891 184.635 381.12C212.182 373.708 237.471 353.912 250.415 329.574L252.283 326.078C252.804 325.102 253.821 324.492 254.929 324.492H267.6H281.68C285.069 324.492 288.325 323.168 290.753 320.802L298.957 312.807L298.957 312.807L303.97 307.92C305.126 306.794 306.965 306.783 308.133 307.896L310.944 310.572C310.945 310.573 310.946 310.574 310.947 310.575C312.261 311.832 313.48 313.017 314.602 314.109C316.609 316.061 318.309 317.715 319.704 318.951C321.714 320.733 324.299 322.829 327.487 323.136C331.083 323.483 333.784 321.485 335.627 319.896C336.836 318.854 338.309 317.393 339.978 315.738C340.869 314.853 341.817 313.913 342.81 312.952L342.817 312.946L342.823 312.939L347.971 307.921C349.126 306.794 350.966 306.783 352.134 307.896L354.929 310.558C354.933 310.562 354.937 310.565 354.941 310.569C356.171 311.756 357.316 312.877 358.376 313.916C360.419 315.916 362.147 317.61 363.57 318.873C365.577 320.655 368.15 322.731 371.34 323.036C374.898 323.377 377.603 321.441 379.483 319.864C380.741 318.809 382.267 317.331 383.998 315.654C384.873 314.807 385.8 313.909 386.771 312.99L386.786 312.975L386.801 312.961L392.038 307.917C393.202 306.797 395.045 306.799 396.206 307.923L398.923 310.552L398.929 310.558C400.177 311.762 401.337 312.898 402.41 313.95C404.437 315.935 406.153 317.616 407.564 318.871C409.564 320.651 412.123 322.725 415.291 323.05C418.85 323.414 421.553 321.489 423.423 319.924C424.671 318.879 426.185 317.413 427.899 315.753C428.764 314.916 429.679 314.03 430.637 313.124L430.653 313.109L430.668 313.094L435.919 308.037C437.081 306.919 438.919 306.919 440.081 308.037L445.332 313.094L445.344 313.105L445.356 313.117C448.004 315.632 450.089 317.607 451.776 319.101C453.434 320.57 454.939 321.788 456.423 322.65C458.05 323.595 459.663 324.121 461.466 324.233C462.989 324.327 464.503 324.1 465.712 323.918L465.809 323.904L465.855 323.897L465.902 323.889C475.514 322.262 485.304 317.41 491.975 310.588C513.77 288.338 506.645 251.547 478.195 238.671L478.189 238.668L472.943 236.302C471.278 235.551 469.473 235.16 467.646 235.153L359.751 234.759Z" fill="#0066CB" stroke="#0066CB" stroke-width="10"/>
<path d="M104.666 254.426C92.933 260.559 86.533 273.759 89.733 285.759C96.6664 311.759 130.933 315.092 142.133 290.826C152.933 267.626 127.333 242.959 104.666 254.426Z" fill="white"/>
</g>
<defs>
<clipPath id="clip0_12_6">
<rect width="559" height="559" rx="8" fill="white"/>
</clipPath>
</defs>
</svg>
