<svg width="450" height="450" viewBox="0 0 450 450" fill="none" xmlns="http://www.w3.org/2000/svg">
<path d="M151.471 149.372C170.952 154.604 189.618 169.674 198.9 187.674L202.062 193.744L285.904 193.953L369.747 194.267L374.949 196.674C394.328 205.674 399.122 231.314 384.332 246.802C379.844 251.511 373.113 254.965 366.483 256.116C362.403 256.744 362.199 256.639 354.039 248.686L345.777 240.523L337.515 248.686C328.029 257.895 330.069 258.105 318.544 246.698L312.22 240.418L303.958 248.581C294.37 257.895 296.41 258.105 284.884 246.698L278.458 240.418L270.298 248.581C260.813 258 262.955 258.209 251.225 246.698L244.799 240.418L236.741 248.477L228.683 256.535H215.423H202.062L198.9 262.605C189.516 280.709 171.054 295.57 150.961 301.116C141.883 303.628 122.299 303.628 113.221 301.116C79.1539 291.698 56.1023 261.349 56.0003 225.663C55.8983 185.79 82.7238 153.767 121.891 147.279C127.399 146.441 145.249 147.593 151.471 149.372Z" fill="#0066CB"/>
<path d="M90.7813 205.465C81.8055 210.279 76.9095 220.639 79.3575 230.058C84.6614 250.465 110.875 253.081 119.443 234.035C127.705 215.825 108.121 196.465 90.7813 205.465Z" fill="#F1F1F1"/>
</svg>
