<?xml version="1.0" standalone="no"?>
<!DOCTYPE svg PUBLIC "-//W3C//DTD SVG 20010904//EN"
 "http://www.w3.org/TR/2001/REC-SVG-20010904/DTD/svg10.dtd">
<svg version="1.0" xmlns="http://www.w3.org/2000/svg"
 width="1024.000000pt" height="1024.000000pt" viewBox="0 0 1024.000000 1024.000000"
 preserveAspectRatio="xMidYMid meet">

<g transform="translate(0.000000,1024.000000) scale(0.100000,-0.100000)"
fill="#0066CB" stroke="none">
<path d="M4529 9810 c-10 -6 -73 -15 -140 -21 -158 -14 -357 -52 -462 -89 -45
-15 -98 -31 -117 -35 -33 -6 -195 -71 -250 -100 -14 -7 -61 -32 -105 -55 -44
-23 -96 -54 -115 -68 -19 -15 -48 -36 -64 -46 -72 -46 -181 -144 -275 -248
-57 -62 -106 -120 -110 -128 -3 -8 -32 -55 -64 -103 -67 -102 -77 -125 -77
-176 0 -41 21 -66 76 -94 50 -26 56 -65 7 -46 -48 18 -124 11 -158 -16 -40
-30 -81 -128 -95 -226 -6 -39 -15 -90 -20 -112 -14 -60 -40 -301 -40 -372 0
-33 5 -125 10 -205 25 -379 33 -495 49 -755 10 -154 16 -283 14 -287 -2 -5
-26 -8 -52 -8 -37 0 -70 -11 -147 -49 -91 -45 -105 -56 -167 -131 -91 -108
-119 -171 -125 -280 -3 -73 0 -95 22 -160 26 -73 68 -143 124 -206 51 -57 270
-160 383 -178 21 -4 41 -12 47 -19 6 -6 15 -79 22 -162 16 -216 48 -462 66
-520 50 -155 152 -366 199 -411 18 -17 42 -49 54 -71 11 -22 36 -53 56 -69 19
-16 73 -62 119 -101 46 -40 96 -77 110 -83 22 -8 26 -16 26 -47 0 -21 3 -68 6
-104 6 -63 6 -67 -16 -74 -13 -4 -45 -29 -72 -55 -27 -27 -68 -61 -91 -76 -40
-26 -183 -159 -230 -214 -12 -14 -38 -41 -57 -60 -66 -67 -93 -110 -98 -160
l-4 -48 -107 -16 c-58 -8 -135 -18 -171 -21 -104 -10 -297 -52 -394 -85 -50
-16 -100 -30 -112 -30 -33 0 -221 -59 -484 -152 -192 -68 -580 -280 -680 -373
-19 -18 -55 -45 -80 -60 -25 -15 -67 -46 -95 -68 -70 -57 -368 -361 -415 -423
-21 -28 -63 -80 -92 -115 -29 -35 -72 -97 -96 -138 l-42 -75 2 -216 3 -215 47
90 c26 50 76 135 112 189 36 55 66 104 66 111 0 6 19 31 42 54 23 24 60 67 82
96 132 170 317 358 468 477 225 177 284 218 315 218 7 0 27 13 45 28 58 50
286 172 321 172 12 0 95 30 162 59 42 18 133 50 200 70 39 11 115 34 170 51
55 16 129 36 165 44 63 14 92 20 250 51 91 17 221 32 357 40 l102 6 17 -28
c10 -15 42 -65 71 -110 29 -45 53 -85 53 -88 0 -3 24 -43 53 -88 96 -149 202
-319 229 -367 11 -19 26 -42 32 -50 7 -8 25 -42 41 -75 30 -62 124 -164 178
-191 16 -9 59 -18 95 -21 69 -6 104 1 307 61 44 13 118 34 165 46 124 32 214
58 313 93 86 29 89 30 160 17 40 -7 117 -26 172 -42 55 -17 134 -38 175 -48
142 -33 215 -53 335 -87 155 -45 254 -53 318 -25 64 28 132 94 166 161 15 31
40 74 56 96 15 22 38 60 51 85 56 103 74 132 106 170 19 22 47 63 63 92 35 66
92 157 116 183 10 11 34 52 54 90 20 39 48 85 62 104 l26 33 116 -6 c232 -14
377 -27 441 -41 65 -15 198 -40 300 -57 30 -5 59 -13 65 -17 5 -5 29 -12 52
-16 24 -4 45 -10 48 -15 3 -4 37 -16 77 -25 40 -10 77 -21 83 -26 5 -5 23 -9
40 -9 17 0 35 -4 40 -9 6 -5 35 -16 65 -26 30 -9 64 -23 75 -29 11 -7 61 -27
110 -45 133 -48 262 -113 359 -180 22 -16 77 -50 121 -75 178 -104 510 -400
620 -551 16 -22 52 -66 80 -97 83 -95 109 -129 167 -223 80 -132 194 -336 203
-365 4 -14 24 -61 45 -105 21 -44 45 -102 54 -130 9 -27 34 -104 56 -170 64
-187 77 -232 99 -345 29 -144 61 -342 61 -374 l0 -26 116 0 117 0 -6 53 c-23
213 -32 265 -58 366 -16 63 -32 117 -34 121 -2 4 -11 42 -20 86 -14 67 -40
149 -106 334 -7 19 -23 67 -37 105 -23 66 -64 153 -157 333 -22 42 -47 89 -56
102 -9 14 -41 68 -72 120 -30 52 -72 113 -92 135 -20 22 -50 63 -66 92 -31 53
-291 345 -333 372 -13 9 -42 39 -66 66 -23 28 -61 62 -84 77 -22 15 -61 43
-86 62 -25 20 -83 65 -130 102 -47 37 -105 76 -130 87 -25 11 -70 37 -100 57
-141 95 -557 278 -689 302 -31 6 -64 14 -73 19 -17 9 -277 83 -348 100 -19 4
-65 15 -103 23 -37 9 -129 23 -205 31 -75 9 -171 20 -212 25 -41 5 -103 9
-137 10 -61 0 -63 1 -63 25 0 28 -16 63 -56 122 -38 57 -274 292 -355 354
-110 83 -151 129 -145 161 3 14 1 41 -4 59 -15 51 -3 74 68 126 37 26 95 73
128 103 34 30 75 66 91 80 16 14 40 44 53 65 14 22 39 56 56 75 38 43 113 166
121 200 3 14 20 59 38 100 52 121 64 167 80 310 9 74 18 142 21 150 3 8 9 75
14 150 14 194 11 186 72 194 122 17 341 121 392 189 11 15 32 42 46 60 42 52
55 78 79 154 21 66 22 79 12 168 -13 129 -42 182 -163 304 -44 44 -179 113
-257 131 l-54 13 7 81 c4 44 11 171 16 282 5 110 14 250 20 310 38 407 39 687
3 814 -32 112 -69 209 -87 229 -9 10 -16 25 -16 34 0 9 43 49 98 89 101 76
138 110 262 248 140 154 241 362 261 537 11 103 -1 138 -63 183 -39 29 -48 32
-98 27 -35 -3 -82 -18 -129 -41 -41 -20 -78 -36 -83 -36 -10 0 -229 -94 -270
-116 -45 -24 -50 -16 -19 39 80 138 96 180 95 243 -1 70 -20 103 -72 128 -41
20 -85 20 -306 -1 -148 -14 -196 -15 -275 -5 -256 31 -344 42 -350 47 -5 2
-59 9 -122 15 -63 6 -139 17 -169 24 -30 8 -98 17 -150 21 -52 4 -120 13 -150
21 -64 17 -554 20 -581 4z m1691 -1964 c0 -54 29 -192 56 -268 26 -70 93 -182
136 -226 13 -13 40 -33 61 -43 l37 -19 0 -73 c0 -65 -23 -326 -35 -402 -3 -16
-9 -109 -15 -205 -6 -96 -17 -238 -25 -315 -7 -77 -17 -189 -20 -250 -7 -123
-39 -430 -54 -515 -6 -30 -15 -113 -21 -185 -11 -131 -21 -188 -66 -370 -24
-99 -34 -124 -89 -220 -89 -154 -262 -335 -408 -425 -128 -80 -195 -117 -252
-139 -27 -11 -87 -35 -133 -55 -45 -19 -101 -37 -125 -41 -23 -4 -53 -13 -67
-20 -36 -18 -190 -52 -300 -67 -121 -17 -428 -16 -545 0 -143 21 -331 71 -465
124 -41 17 -106 41 -144 54 -67 23 -86 33 -208 116 -31 21 -63 38 -71 38 -7 0
-41 26 -75 57 -33 32 -78 74 -99 93 -92 85 -223 269 -257 362 -49 135 -82 308
-96 513 -6 83 -17 184 -25 225 -21 115 -38 321 -55 685 -6 127 -15 244 -20
260 -4 17 -11 89 -14 160 -4 72 -13 198 -21 280 -7 83 -16 191 -19 241 l-6 92
28 10 c15 6 63 22 107 35 69 22 82 23 95 11 12 -12 12 -22 1 -71 -38 -164 -40
-195 -21 -234 27 -52 73 -72 141 -59 54 9 301 129 404 194 139 90 182 116 188
116 4 0 36 20 72 45 36 25 65 42 65 37 0 -5 16 -27 35 -49 l35 -41 -34 -26
c-41 -31 -63 -106 -45 -153 33 -88 93 -100 251 -47 62 20 118 40 123 44 6 4
26 13 45 20 19 8 89 43 155 78 113 61 306 145 313 137 2 -2 -6 -14 -18 -27
-19 -20 -21 -32 -18 -86 7 -119 75 -147 226 -93 145 53 293 112 377 151 44 21
92 40 106 43 14 4 56 24 95 45 202 112 238 133 264 154 16 13 66 48 111 78 45
30 112 83 150 118 37 34 72 62 76 62 4 0 28 18 52 40 25 22 48 40 53 40 4 0 8
-15 8 -34z m-3603 -1511 c1 -27 7 -108 13 -180 5 -71 12 -167 16 -213 l6 -83
-28 7 c-98 22 -168 50 -191 79 -83 102 -113 173 -98 232 8 33 70 135 96 159
26 24 118 54 154 51 29 -2 30 -4 32 -52z m4204 18 c25 -13 51 -32 57 -41 63
-91 66 -99 70 -158 4 -57 1 -67 -33 -128 -20 -37 -51 -77 -69 -90 -35 -26
-123 -62 -175 -72 l-34 -7 6 79 c4 43 11 160 17 259 6 98 14 183 17 188 8 14
96 -4 144 -30z m-3258 -2347 c12 -8 38 -17 57 -21 19 -4 40 -11 46 -16 6 -5
35 -18 65 -28 70 -24 190 -70 209 -80 17 -9 121 -29 338 -67 142 -24 168 -26
385 -21 165 3 256 9 317 21 257 52 329 68 365 80 22 7 60 19 85 26 25 8 52 19
60 26 8 6 26 15 40 19 14 4 45 18 70 30 62 31 90 39 90 25 0 -16 -79 -139
-119 -186 -20 -23 -70 -83 -111 -134 -41 -50 -93 -113 -115 -139 -22 -26 -50
-59 -62 -73 -22 -27 -106 -130 -123 -151 -5 -7 -42 -50 -82 -96 -40 -46 -124
-150 -186 -230 -62 -80 -132 -168 -156 -196 -23 -27 -60 -76 -82 -107 -21 -32
-44 -58 -50 -58 -7 0 -27 24 -45 52 -19 29 -51 72 -71 96 -21 24 -38 48 -38
53 0 5 -18 29 -39 52 -22 24 -55 64 -73 89 -59 83 -145 193 -220 281 -40 48
-100 121 -133 163 -33 42 -81 101 -107 130 -26 29 -54 67 -63 84 -9 17 -43 61
-77 98 -62 68 -185 229 -207 270 -14 26 -2 29 32 8z m2319 -321 c23 -16 59
-46 79 -65 19 -19 86 -82 147 -140 62 -57 112 -108 112 -113 0 -6 -21 -34 -46
-64 -25 -29 -56 -75 -69 -101 -13 -27 -30 -54 -39 -61 -17 -14 -96 -127 -96
-137 0 -3 -15 -29 -33 -57 -19 -29 -48 -75 -66 -104 -18 -28 -39 -57 -48 -64
-8 -7 -25 -36 -38 -64 -12 -28 -37 -72 -56 -97 -55 -75 -76 -109 -109 -173
-59 -115 -89 -130 -200 -100 -30 8 -109 28 -175 45 -66 17 -160 42 -210 56
-49 14 -118 33 -152 41 -35 8 -63 18 -63 22 0 3 30 45 68 92 37 47 73 98 81
115 8 16 32 47 53 69 20 22 83 96 138 165 121 149 212 259 261 315 19 22 50
60 69 85 19 25 51 63 72 85 21 22 38 43 38 47 0 5 35 48 78 96 43 48 88 104
101 125 21 34 25 37 42 25 10 -7 37 -26 61 -43z m-2403 -20 c33 -36 61 -70 61
-75 0 -6 24 -37 53 -69 97 -110 182 -212 215 -259 18 -26 57 -75 87 -109 30
-34 55 -66 55 -70 0 -5 14 -22 31 -39 18 -16 47 -51 65 -79 19 -27 68 -88 109
-135 41 -46 75 -88 75 -93 0 -5 19 -32 43 -60 23 -28 59 -76 79 -106 l37 -56
-32 -9 c-18 -4 -115 -34 -217 -66 -220 -68 -328 -99 -393 -113 -47 -10 -49 -9
-86 27 -21 21 -60 76 -86 124 -27 48 -70 119 -97 159 -26 40 -48 74 -48 77 0
3 -19 35 -42 70 -24 35 -61 94 -83 131 -73 121 -132 214 -144 229 -6 8 -41 60
-77 116 -54 86 -62 105 -52 119 29 39 154 161 164 161 7 0 28 19 48 43 34 40
154 145 167 146 4 1 34 -28 68 -64z"/>
<path d="M3478 6739 c-15 -6 -36 -25 -48 -43 -36 -60 -22 -133 32 -166 30 -18
51 -20 241 -20 166 0 214 3 237 15 82 42 72 174 -15 211 -41 17 -402 19 -447
3z"/>
<path d="M5376 6740 c-94 -29 -113 -139 -34 -205 29 -25 30 -25 246 -25 157 1
223 4 240 13 78 44 64 192 -20 215 -44 12 -394 14 -432 2z"/>
<path d="M4630 6253 c-45 -31 -49 -43 -49 -153 0 -118 -35 -396 -59 -480 -9
-30 -17 -81 -17 -112 0 -52 4 -61 32 -89 62 -63 171 -45 207 33 16 36 20 61
36 253 6 72 15 137 19 146 15 27 24 280 12 326 -22 81 -116 121 -181 76z"/>
<path d="M3742 6190 c-97 -70 -71 -217 44 -249 51 -14 60 -14 93 3 71 37 101
137 61 204 -46 75 -129 92 -198 42z"/>
<path d="M5400 6202 c-89 -47 -94 -196 -9 -246 30 -18 120 -21 149 -6 33 18
60 74 60 126 0 113 -103 177 -200 126z"/>
<path d="M4150 5350 c-75 -18 -102 -99 -60 -184 33 -70 134 -159 240 -214 88
-46 103 -50 212 -62 155 -17 295 2 404 56 96 47 208 144 240 205 35 69 30 154
-10 181 -28 19 -82 27 -117 18 -29 -8 -47 -24 -82 -73 -56 -78 -68 -87 -144
-120 -141 -59 -239 -58 -388 4 -69 29 -120 74 -154 137 -23 44 -81 65 -141 52z"/>
<path d="M7378 8603 c-33 -21 -68 -82 -68 -120 0 -20 10 -39 31 -59 l30 -29
1282 -5 1282 -5 37 -23 c59 -37 95 -85 107 -144 8 -38 11 -368 9 -1113 -3
-1012 -4 -1062 -22 -1095 -10 -19 -30 -48 -45 -63 -52 -57 -53 -57 -555 -57
-512 0 -519 -1 -626 -65 -30 -18 -83 -45 -118 -59 -35 -14 -85 -38 -110 -53
-26 -16 -96 -53 -157 -82 -60 -30 -164 -80 -229 -112 -65 -33 -121 -57 -124
-54 -3 2 5 35 16 72 61 196 63 253 13 313 l-29 35 -343 3 c-294 3 -349 1 -385
-13 -45 -17 -64 -46 -64 -98 0 -39 7 -50 50 -82 l34 -25 240 0 c133 0 251 -3
262 -6 18 -5 20 -10 13 -32 -5 -15 -20 -63 -34 -107 -13 -44 -38 -120 -55
-168 -17 -51 -30 -109 -30 -136 0 -44 4 -52 37 -81 32 -29 41 -32 83 -28 26 3
64 14 86 26 21 11 59 30 84 42 25 12 52 28 60 35 9 8 58 33 110 56 52 23 131
64 175 90 44 26 100 53 125 59 25 7 58 21 73 32 35 25 255 138 269 138 5 0 36
16 69 35 l59 34 477 3 478 3 55 24 c85 38 162 100 187 151 l22 45 1 1262 0
1262 -21 36 c-30 51 -131 119 -221 149 l-77 26 -1258 0 c-1153 -1 -1260 -2
-1285 -17z"/>
<path d="M8180 7820 c-448 -3 -823 -9 -833 -14 -26 -12 -47 -59 -47 -104 0
-40 27 -75 77 -101 16 -8 282 -11 946 -11 l924 0 36 28 c41 30 61 77 51 116
-9 37 -68 86 -107 88 -57 3 -218 3 -1047 -2z"/>
<path d="M7356 7065 c-16 -9 -35 -23 -42 -33 -18 -24 -17 -103 2 -130 33 -47
66 -52 371 -52 304 0 334 4 367 51 34 49 11 136 -44 164 -43 22 -611 22 -654
0z"/>
<path d="M8224 7058 c-41 -31 -44 -37 -44 -89 0 -57 26 -94 78 -109 23 -6 217
-10 512 -10 445 0 478 2 517 19 46 22 63 45 63 90 0 47 -21 81 -62 102 -35 18
-64 19 -536 19 l-499 0 -29 -22z"/>
<path d="M1755 5270 c-198 -4 -674 -11 -1057 -15 l-698 -7 0 -115 0 -115 723
7 c397 3 783 10 857 16 74 5 252 9 395 9 146 0 276 5 297 10 20 6 49 25 63 42
22 26 26 39 22 70 -6 45 -19 63 -60 85 -40 20 -118 22 -542 13z"/>
<path d="M0 4415 l0 -116 558 3 c534 3 559 4 597 23 47 24 63 65 49 123 -7 30
-17 41 -54 60 l-44 22 -553 0 -553 0 0 -115z"/>
<path d="M1526 4505 c-60 -29 -66 -38 -66 -96 0 -52 13 -69 73 -94 54 -23 996
-23 1051 0 52 22 76 50 76 88 0 47 -20 79 -65 104 l-40 23 -490 0 -490 -1 -49
-24z"/>
<path d="M4423 1930 c-36 -15 -43 -43 -43 -173 0 -162 7 -172 108 -172 102 0
102 0 102 165 0 168 -6 181 -91 186 -30 2 -64 0 -76 -6z"/>
<path d="M4450 1409 c-14 -6 -35 -20 -47 -31 -22 -21 -23 -29 -23 -179 0 -136
2 -160 18 -179 35 -44 157 -36 183 12 17 31 12 303 -6 337 -8 17 -18 32 -22
34 -20 11 -81 15 -103 6z"/>
<path d="M10080 80 l0 -80 80 0 80 0 0 80 0 80 -80 0 -80 0 0 -80z"/>
</g>
</svg>
