<svg  viewBox="0 0 411 497" fill="none" xmlns="http://www.w3.org/2000/svg">
<path d="M154.34 62.74H42.18C31.2543 62.7717 20.7863 67.1315 13.0681 74.8647C5.34997 82.5978 1.01054 93.0743 1 104C0.69295 114.59 4.59944 124.869 11.8623 132.581C19.1251 140.294 29.151 144.811 39.74 145.14H40.96H155.54L154.34 62.74Z" fill="#073042"/>
<path d="M409.84 429.74H42.05C31.1641 429.674 20.7445 425.313 13.0572 417.605C5.36991 409.897 1.0367 399.466 0.999999 388.58V103.77C0.972353 109.194 2.01359 114.571 4.06423 119.593C6.11487 124.615 9.13474 129.184 12.9514 133.039C16.768 136.893 21.3066 139.958 26.308 142.059C31.3094 144.159 36.6755 145.254 42.1 145.28C43.02 145.28 43.93 145.28 44.84 145.2H349.9C349.9 145.2 409.84 140 409.84 185.2V429.74Z" fill="#4285F4"/>
<path d="M215.62 231.65C210.767 231.738 206.07 233.373 202.212 236.317C198.354 239.262 195.537 243.362 194.172 248.019C192.807 252.676 192.965 257.648 194.623 262.209C196.281 266.77 199.352 270.683 203.39 273.376C207.427 276.07 212.219 277.403 217.067 277.183C221.916 276.962 226.567 275.199 230.343 272.15C234.119 269.101 236.822 264.926 238.06 260.233C239.297 255.54 239.002 250.574 237.22 246.06C235.499 241.755 232.514 238.074 228.657 235.501C224.801 232.929 220.255 231.586 215.62 231.65Z" fill="black"/>
<path d="M238.27 283.87C244.418 279.265 248.981 272.859 251.324 265.544C253.668 258.228 253.676 250.364 251.348 243.043C249.02 235.722 244.471 229.308 238.332 224.689C232.193 220.071 224.769 217.478 217.09 217.27H218.29C220.458 217.06 222.642 217.06 224.81 217.27V194.35C224.865 193.054 224.573 191.766 223.965 190.62C223.357 189.475 222.454 188.511 221.35 187.83C220.241 187.173 218.975 186.826 217.685 186.826C216.395 186.826 215.13 187.173 214.02 187.83C212.916 188.511 212.013 189.475 211.405 190.62C210.797 191.766 210.505 193.054 210.56 194.35V217.67C203.325 218.817 196.59 222.076 191.202 227.039C185.814 232.002 182.013 238.447 180.276 245.563C178.54 252.68 178.946 260.151 181.443 267.038C183.939 273.925 188.416 279.92 194.31 284.27L126.5 429.21H170.73L202 362.6C203.331 359.844 205.413 357.519 208.006 355.893C210.6 354.267 213.599 353.407 216.66 353.41C219.704 353.402 222.687 354.263 225.258 355.89C227.83 357.518 229.885 359.846 231.18 362.6L263.41 429.21H308.2L238.27 283.87ZM215.62 277.34C211.063 277.358 206.604 276.022 202.808 273.501C199.012 270.981 196.05 267.39 194.298 263.183C192.546 258.977 192.083 254.345 192.968 249.875C193.852 245.405 196.045 241.299 199.267 238.077C202.489 234.855 206.595 232.662 211.065 231.778C215.535 230.893 220.167 231.356 224.373 233.108C228.58 234.86 232.171 237.822 234.691 241.618C237.212 245.414 238.548 249.873 238.53 254.43C238.53 260.506 236.116 266.333 231.82 270.63C227.523 274.926 221.696 277.34 215.62 277.34Z" fill="#3870B2"/>
<path d="M130.1 83H287.42V111.9H130.1V83Z" fill="white"/>
<path d="M203.37 231.65C208.631 231.689 213.717 233.548 217.762 236.912C221.807 240.277 224.562 244.938 225.56 250.104C226.557 255.27 225.734 260.621 223.232 265.249C220.729 269.877 216.702 273.496 211.833 275.49C206.964 277.485 201.555 277.731 196.525 276.188C191.495 274.646 187.155 271.408 184.241 267.027C181.328 262.646 180.022 257.391 180.545 252.156C181.068 246.921 183.388 242.028 187.11 238.31C191.45 234.049 197.287 231.658 203.37 231.65ZM212.37 218.33V194.33C212.425 193.034 212.133 191.746 211.525 190.6C210.917 189.454 210.014 188.491 208.91 187.81C207.8 187.153 206.535 186.806 205.245 186.806C203.955 186.806 202.689 187.153 201.58 187.81C200.477 188.493 199.576 189.456 198.968 190.602C198.36 191.748 198.067 193.034 198.12 194.33V217.65C190.885 218.797 184.15 222.056 178.762 227.019C173.374 231.982 169.573 238.427 167.836 245.543C166.1 252.66 166.506 260.131 169.003 267.018C171.499 273.905 175.976 279.9 181.87 284.25L96.8 467.44C95.2138 470.661 94.513 474.246 94.7696 477.828C95.0261 481.409 96.2308 484.858 98.26 487.82C100.322 490.755 103.117 493.099 106.366 494.618C109.615 496.137 113.206 496.779 116.78 496.48C120.354 496.135 123.77 494.84 126.674 492.73C129.579 490.62 131.867 487.772 133.3 484.48L190 362.6C191.343 359.853 193.428 357.537 196.019 355.913C198.609 354.289 201.602 353.422 204.66 353.41C207.704 353.402 210.687 354.263 213.258 355.89C215.83 357.518 217.885 359.846 219.18 362.6L277.39 483.82C278.544 486.199 280.156 488.327 282.133 490.083C284.11 491.839 286.413 493.189 288.911 494.055C291.41 494.921 294.054 495.286 296.694 495.13C299.333 494.974 301.916 494.299 304.295 493.145C306.674 491.991 308.802 490.379 310.558 488.402C312.314 486.425 313.664 484.122 314.53 481.624C315.396 479.125 315.761 476.481 315.605 473.841C315.449 471.202 314.774 468.619 313.62 466.24L226 283.87C231.396 279.564 235.497 273.851 237.853 267.362C240.208 260.873 240.725 253.86 239.347 247.095C237.97 240.331 234.751 234.078 230.045 229.027C225.339 223.976 219.33 220.323 212.68 218.47" fill="#073042"/>
<path d="M264.64 108.43C262.505 108.478 260.406 107.883 258.613 106.723C256.82 105.564 255.417 103.892 254.585 101.926C253.753 99.9592 253.531 97.7882 253.947 95.6939C254.363 93.5997 255.399 91.6788 256.92 90.18C258.429 88.6863 260.346 87.671 262.429 87.2615C264.513 86.852 266.671 87.0663 268.633 87.8777C270.596 88.6891 272.275 90.0615 273.461 91.823C274.647 93.5844 275.286 95.6566 275.3 97.78C275.3 99.1794 275.024 100.565 274.488 101.858C273.953 103.151 273.167 104.325 272.177 105.314C271.187 106.303 270.012 107.088 268.719 107.622C267.425 108.157 266.039 108.431 264.64 108.43ZM146.22 108.43C144.096 108.453 142.013 107.841 140.239 106.672C138.465 105.503 137.08 103.83 136.264 101.869C135.447 99.9074 135.235 97.7468 135.655 95.6641C136.075 93.5814 137.107 91.6717 138.62 90.18C139.519 89.0841 140.625 88.176 141.875 87.5076C143.125 86.8391 144.494 86.4233 145.904 86.284C147.315 86.1448 148.739 86.2847 150.095 86.6958C151.452 87.1069 152.714 87.7811 153.81 88.68C154.906 89.5789 155.814 90.6848 156.482 91.9347C157.151 93.1845 157.567 94.5538 157.706 95.9643C157.845 97.3749 157.705 98.799 157.294 100.155C156.883 101.512 156.209 102.774 155.31 103.87C154.861 104.419 154.359 104.921 153.81 105.37C152.814 106.362 151.629 107.143 150.325 107.669C149.021 108.195 147.625 108.453 146.22 108.43ZM268.51 43.83L289.82 6.83C290.223 5.82294 290.252 4.70452 289.901 3.67813C289.549 2.65174 288.841 1.78553 287.905 1.23701C286.969 0.68849 285.868 0.494095 284.8 0.689169C283.733 0.884244 282.771 1.45583 282.09 2.3L260.51 39.83C243.214 32.0625 224.47 28.0466 205.51 28.0466C186.55 28.0466 167.806 32.0625 150.51 39.83L128.77 2.26C128.376 1.58068 127.812 1.01533 127.133 0.619199C126.455 0.223069 125.685 0.00971812 124.9 0C124.117 0.0386908 123.354 0.263984 122.676 0.657106C121.998 1.05023 121.423 1.59979 121 2.26C120.602 2.94865 120.393 3.72982 120.393 4.525C120.393 5.32018 120.602 6.10135 121 6.79L142.45 43.79C123.973 53.9234 108.313 68.5022 96.8852 86.2082C85.4577 103.914 78.6234 124.189 77 145.2H334.1C332.451 124.184 325.591 103.91 314.139 86.2109C302.687 68.5119 287.005 53.946 268.51 43.83Z" fill="#3DDC84"/>
<path d="M372.94 224.19H356C355.432 224.19 354.888 224.415 354.487 224.817C354.085 225.218 353.86 225.762 353.86 226.33V493.41C353.859 493.953 354.065 494.476 354.437 494.872C354.809 495.268 355.318 495.507 355.86 495.54H373.31C383.106 495.514 392.491 491.604 399.408 484.668C406.326 477.732 410.21 468.336 410.21 458.54V187.16C410.21 196.973 406.312 206.384 399.373 213.323C392.434 220.262 383.023 224.16 373.21 224.16L372.94 224.19Z" fill="#073042"/>
</svg>
