<svg width="50" height="48" viewBox="0 0 100 98" fill="#ffa400" xmlns="http://www.w3.org/2000/svg">
<path d="M15.555 69.0001C14.4957 69.0159 13.7263 69.1693 13.2636 69.5091C13.0122 69.6937 12.8409 69.9417 12.7882 70.2419C12.7378 70.5286 12.8062 70.8028 12.9122 71.0354C13.119 71.4894 13.5336 71.9264 13.966 72.2906C14.4082 72.6631 14.92 73.0017 15.3846 73.2509C15.844 73.5085 16.35 73.9604 16.8688 74.5463C17.3844 75.1286 17.8915 75.8189 18.3557 76.5247C19.2842 77.9367 20.014 79.3692 20.2816 80.0502C20.8074 81.5256 21.9319 83.688 24.5758 85.1705C27.1357 86.606 31.0466 87.3628 37.0629 86.346C37.0655 88.2293 37.0796 90.0367 37.0938 91.536C37.0986 92.0435 37.1033 92.5151 37.1077 92.9422C37.1175 93.912 37.125 94.6525 37.125 95.0625C37.125 95.609 36.9293 96.1626 36.5122 96.532C36.1113 96.8871 35.4289 97.1392 34.3096 96.9511C14.651 90.3815 0.5 71.8896 0.5 50C0.5 22.6511 22.6511 0.5 50 0.5C77.3489 0.5 99.5 22.6511 99.5 50C99.5 71.83 85.3455 90.3854 65.8091 96.9532C64.6927 97.1696 64.0147 96.9171 63.6157 96.558C63.1973 96.1814 63 95.6113 63 95.0625C63 94.5002 63.007 93.5272 63.0163 92.2294C63.0209 91.5848 63.026 90.8601 63.0312 90.0658C63.0469 87.6746 63.0625 84.6578 63.0625 81.3125C63.0625 77.1556 61.8601 74.2333 60.2722 72.4351C65.5422 71.7524 70.9302 70.3149 75.0869 66.8284C79.5391 63.094 82.5 57.0782 82.5 47.375C82.5 41.8652 80.5962 37.3833 77.4512 33.8309C78.0721 32.1397 79.4781 27.0989 76.8392 20.5018L76.7526 20.2852L76.531 20.2125L76.375 20.6875C76.531 20.2125 76.5305 20.2123 76.53 20.2121L76.5289 20.2118L76.5264 20.211L76.5202 20.209L76.5031 20.2039C76.4896 20.1999 76.472 20.195 76.4501 20.1894C76.4064 20.1782 76.3459 20.1641 76.2683 20.1496C76.1131 20.1206 75.8898 20.0897 75.5965 20.0749C75.0094 20.0452 74.1443 20.0804 72.9836 20.3231C70.6941 20.8017 67.2588 22.0866 62.5363 25.2688C58.5556 24.1724 54.3392 23.625 50.125 23.625C45.9104 23.625 41.6935 24.1725 37.7124 25.2692C32.9901 22.1173 29.5558 20.8331 27.268 20.3469C26.1083 20.1004 25.2441 20.0591 24.658 20.0834C24.3651 20.0956 24.1423 20.124 23.9874 20.1512C23.91 20.1647 23.8496 20.1779 23.806 20.1885C23.7842 20.1939 23.7666 20.1985 23.7532 20.2022L23.7362 20.2071L23.7301 20.209L23.7276 20.2097L23.7265 20.2101C23.726 20.2102 23.7255 20.2104 23.875 20.6875L23.7255 20.2104L23.4989 20.2814L23.4108 20.5018C20.7719 27.0989 22.1779 32.1399 22.7988 33.8309C19.6533 37.3865 17.75 41.9271 17.75 47.375C17.75 57.0466 20.6949 63.0619 25.1307 66.804C29.2738 70.2993 34.6492 71.7512 39.92 72.4355C38.7423 73.7764 37.7608 75.7519 37.3568 78.4055C35.9298 79.0239 33.635 79.7429 31.1864 79.5177C28.6234 79.2821 25.846 78.01 23.6797 74.3693L23.6798 74.3693L23.674 74.36C23.1881 73.5825 22.2182 72.2397 20.8527 71.0936C19.4882 69.9484 17.6875 68.9664 15.555 69.0001ZM15.555 69.0001L15.5625 69.5M15.555 69.0001C15.5549 69.0001 15.5547 69.0001 15.5546 69.0001L15.5625 69.5M15.5625 69.5C11.375 69.5625 13.875 71.875 15.625 72.8125L37.8125 78.75C34.9375 80.0625 27.75 82.1875 23.25 74.625C22.3125 73.125 19.5 69.4375 15.5625 69.5Z" />
</svg>
