<svg  viewBox="0 0 123 123" fill="none" xmlns="http://www.w3.org/2000/svg">
<path fill-rule="evenodd" clip-rule="evenodd" d="M39.3105 95.1228C39.3105 95.1228 32.9837 97.8555 43.8066 98.7764C56.9179 99.8875 63.6082 99.7273 78.0522 97.6953C78.0522 97.6953 81.8483 99.467 87.152 100.999C54.7776 111.329 13.8686 100.408 39.3105 95.1228Z" fill="#5382A1"/>
<path fill-rule="evenodd" clip-rule="evenodd" d="M35.3529 81.6597C35.3529 81.6597 28.2588 85.5635 39.0951 86.3943C53.0949 87.4653 64.1601 87.5554 83.2887 84.8127C83.2887 84.8127 85.9405 86.8047 90.1001 87.8957C50.9411 96.4141 7.32639 88.5664 35.3529 81.6597Z" fill="#5382A1"/>
<path fill-rule="evenodd" clip-rule="evenodd" d="M68.71 58.8174C76.6926 65.644 66.6101 71.79 66.6101 71.79C66.6101 71.79 86.8694 64.0125 77.5676 54.273C68.8716 45.1941 62.2082 40.6797 98.2846 25.1245C98.2846 25.1245 41.6662 35.6348 68.71 58.8174Z" fill="#E76F00"/>
<path fill-rule="evenodd" clip-rule="evenodd" d="M111.53 105.083C111.53 105.083 116.202 107.945 106.375 110.167C87.6904 114.382 28.5818 115.653 12.1589 110.338C6.26288 108.426 17.3281 105.783 20.8011 105.223C24.4357 104.632 26.5087 104.742 26.5087 104.742C19.9396 101.309 -15.9214 111.489 8.29554 114.412C74.3233 122.369 128.653 110.828 111.53 105.083Z" fill="#5382A1"/>
<path fill-rule="evenodd" clip-rule="evenodd" d="M42.3528 67.7061C42.3528 67.7061 12.2936 73.0112 31.7048 74.9431C39.9028 75.7639 56.2448 75.5737 71.4696 74.6228C83.9079 73.842 96.4 72.1804 96.4 72.1804C96.4 72.1804 92.0116 73.5818 88.8347 75.1934C58.3044 81.1592 -0.669648 78.3865 16.3051 72.2805C30.6683 67.1155 42.3528 67.7061 42.3528 67.7061Z" fill="#5382A1"/>
<path fill-rule="evenodd" clip-rule="evenodd" d="M96.2788 90.1179C127.307 78.1262 112.957 66.605 102.942 68.1565C100.492 68.5369 99.3884 68.8672 99.3884 68.8672C99.3884 68.8672 100.304 67.8061 102.04 67.3457C121.855 62.1706 137.094 82.6206 95.6461 90.7285C95.6596 90.7285 96.1308 90.4082 96.2788 90.1179Z" fill="#5382A1"/>
<path fill-rule="evenodd" clip-rule="evenodd" d="M77.5676 0C77.5676 0 94.7577 12.7825 61.2659 32.4417C34.4106 48.207 55.141 57.2058 61.2525 67.4758C45.5835 56.9656 34.0741 47.7065 41.7874 39.0881C53.1218 26.4358 84.5002 20.3098 77.5676 0Z" fill="#E76F00"/>
<path fill-rule="evenodd" clip-rule="evenodd" d="M45.395 122.61C75.1849 124.031 120.927 121.819 122.017 111.339C122.017 111.339 119.93 115.313 97.3961 118.466C71.9677 122.019 40.6162 121.609 22.0127 119.326C22.0127 119.336 25.8222 121.679 45.395 122.61Z" fill="#5382A1"/>
</svg>
