<svg width="50" height="48" viewBox="0 0 100 98" fill="#ffa400" xmlns="http://www.w3.org/2000/svg">
<path d="M31.4524 37.1543V36.6543H30.9524H16.6667H16.1667V37.1543V81.275V81.775H16.6667H30.9524H31.4524V81.275V37.1543ZM31.4524 24.3128V24.3L31.4517 24.2872C31.2685 20.7141 28.3011 18.0771 23.8095 18.0771C19.3438 18.0771 16.1667 20.6985 16.1667 24.3128C16.1667 27.9131 19.327 30.6879 23.8095 30.6879C26.1445 30.6879 28.0536 30.0026 29.3869 28.8474C30.7235 27.6893 31.4524 26.0823 31.4524 24.3128ZM83.3333 81.775H83.8333V81.275V56.3352C83.8333 49.8138 81.8846 44.8833 78.6771 41.5808C75.4703 38.279 71.0533 36.6543 66.2143 36.6543C61.4823 36.6543 57.9313 38.1781 55.5623 39.7065C54.3788 40.47 53.4902 41.2346 52.8954 41.811C52.8905 41.8157 52.8857 41.8204 52.881 41.825V37.1543V36.6543H52.381H38.0952H37.5952V37.1543V81.275V81.775H38.0952H52.381H52.881V81.275H52.381C52.881 81.275 52.881 81.2749 52.881 81.2748V81.274V81.2728V81.2712V81.269V81.2664V81.2633V81.2597V81.2557V81.2511V81.2462V81.2407V81.2348V81.2285V81.2217V81.2144V81.2067V81.1985V81.1898V81.1808V81.1712V81.1613V81.1508V81.14V81.1287V81.117V81.1048V81.0922V81.0791V81.0657V81.0518V81.0374V81.0227V81.0075V80.9919V80.9759V80.9594V80.9426V80.9253V80.9076V80.8895V80.871V80.8521V80.8328V80.8131V80.7929V80.7724V80.7515V80.7302V80.7084V80.6863V80.6638V80.6409V80.6176V80.594V80.5699V80.5455V80.5207V80.4955V80.4699V80.444V80.4176V80.3909V80.3639V80.3364V80.3086V80.2805V80.252V80.2231V80.1938V80.1642V80.1342V80.1039V80.0733V80.0423V80.0109V79.9792V79.9471V79.9147V79.882V79.8489V79.8155V79.7817V79.7476V79.7132V79.6784V79.6433V79.6079V79.5722V79.5361V79.4998V79.4631V79.426V79.3887V79.3511V79.3131V79.2748V79.2362V79.1973V79.1581V79.1186V79.0788V79.0387V78.9983V78.9576V78.9166V78.8754V78.8338V78.7919V78.7498V78.7073V78.6646V78.6216V78.5783V78.5347V78.4909V78.4468V78.4024V78.3577V78.3128V78.2676V78.2221V78.1764V78.1304V78.0841V78.0376V77.9908V77.9438V77.8965V77.849V77.8012V77.7532V77.7049V77.6564V77.6076V77.5586V77.5094V77.4599V77.4102V77.3602V77.31V77.2596V77.209V77.1581V77.107V77.0557V77.0041V76.9524V76.9004V76.8482V76.7958V76.7432V76.6904V76.6373V76.5841V76.5306V76.477V76.4231V76.369V76.3148V76.2603V76.2057V76.1509V76.0958V76.0406V75.9852V75.9296V75.8738V75.8179V75.7617V75.7054V75.6489V75.5923V75.5354V75.4784V75.4212V75.3639V75.3064V75.2487V75.1909V75.1329V75.0747V75.0164V74.9579V74.8993V74.8405V74.7816V74.7225V74.6633V74.6039V74.5444V74.4848V74.425V74.3651V74.305V74.2448V74.1845V74.124V74.0635V74.0027V73.9419V73.881V73.8199V73.7587V73.6974V73.6359V73.5744V73.5127V73.451V73.3891V73.3271V73.265V73.2029V73.1406V73.0782V73.0157V72.9531V72.8904V72.8277V72.7648V72.7019V72.6388V72.5757V72.5125V72.4492V72.3858V72.3224V72.2589V72.1953V72.1316V72.0679V72.0041V71.9402V71.8763V71.8123V71.7482V71.6841V71.6199V71.5557V71.4914V71.427V71.3626V71.2982V71.2337V71.1692V71.1046V71.0399V70.9753V70.9106V70.8458V70.7811V70.7162V70.6514V70.5865V70.5216V70.4567V70.3918V70.3268V70.2618V70.1968V70.1318V70.0667V70.0017V69.9366V69.8715V69.8064V69.7414V69.6763V69.6112V69.5461V69.481V69.4159V69.3508V69.2857V69.2206V69.1555V69.0905V69.0255V68.9604V68.8954V68.8304V68.7655V68.7005V68.6356V68.5707V68.5058V68.441V68.3762V68.3114V68.2467V68.182V68.1173V68.0527V67.9881V67.9235V67.859V67.7946V67.7302V67.6659V67.6016V67.5373V67.4732V67.409V67.345V67.281V67.217V67.1532V67.0894V67.0256V66.962V66.8984V66.8348V66.7714V66.708V66.6448V66.5816V66.5184V66.4554V66.3925V66.3296V66.2668V66.2042V66.1416V66.0791V66.0167V65.9544V65.8922V65.8302V65.7682V65.7063V65.6445V65.5829V65.5214V65.4599V65.3986V65.3374V65.2764V65.2154V65.1546V65.0939V65.0333V64.9728V64.9125V64.8523V64.7923V64.7323V64.6726V64.6129V64.5534V64.4941V64.4348V64.3758V64.3168V64.2581V64.1995V64.141V64.0827V64.0245V63.9665V63.9087V63.851V63.7935V63.7362V63.679V63.622V63.5651V63.5085V63.452V63.3957V63.3395V63.2836V63.2278V63.1722V63.1168V63.0616V63.0066V62.9517V62.8971V62.8427V62.7884V62.7344V62.6805V62.6269V62.5734V62.5202V62.4671V62.4143V62.3617V62.3093V62.2571V62.2051V62.1534V62.1018V62.0505V61.9994V61.9486V61.8979V61.8475V61.7973V61.7474V61.6977V61.6482V61.5989V61.5499V61.5012V61.4527V61.4044V61.3564V61.3086V61.2611V61.2138V61.1668V61.12V61.0735V61.0272V60.9813V60.9355V60.8901V60.8449V60.7999V60.7553V60.7109V60.6668V60.623V60.5794V60.5361V60.4931V60.4504V60.408V60.3658V60.3239V60.2824V60.2411V60.2001V60.1594V60.119V60.0789V60.0391V59.9996V59.9604V59.9216V59.883V59.8447V59.8068V59.7691V59.7318V59.6948V59.6581V59.6217V59.5856V59.5499V59.5145V59.4794V59.4447V59.4103V59.3762V59.3424V59.309V59.2759V59.2432V59.2108V59.1788V59.1471V59.1157V59.0847V59.054V59.0237V58.9938V58.9642V58.9349V58.906V58.8775V58.8494V58.8216V58.7942V58.7671V58.7404V58.7141V58.6882V58.6626V58.6374V58.6126V58.5882V58.5641V58.5405V58.5172V58.4943V58.4718V58.4497V58.428V58.4067V58.3858V58.3652V58.3451V58.3254V58.3061V58.2872V58.2687V58.2506V58.2329V58.2157V58.1988V58.1824V58.1664V58.1508V58.1356V58.1209V58.1066V58.0927V58.0792V58.0662V58.0536C52.881 55.8316 53.4577 53.5996 54.693 51.9368C55.9144 50.2929 57.8014 49.1721 60.5238 49.1721H60.7104C63.5391 49.2172 65.4745 50.3347 66.7158 51.9596C67.971 53.6027 68.5476 55.8083 68.5476 58.0536V58.0639V58.0746V58.0858V58.0975V58.1095V58.1221V58.135V58.1485V58.1623V58.1766V58.1913V58.2065V58.2221V58.2381V58.2545V58.2714V58.2887V58.3064V58.3245V58.3431V58.362V58.3814V58.4012V58.4214V58.442V58.463V58.4844V58.5063V58.5285V58.5511V58.5741V58.5975V58.6213V58.6456V58.6701V58.6951V58.7205V58.7462V58.7724V58.7989V58.8258V58.8531V58.8807V58.9087V58.9371V58.9659V58.995V59.0245V59.0544V59.0846V59.1152V59.1461V59.1774V59.2091V59.2411V59.2734V59.3061V59.3392V59.3726V59.4063V59.4404V59.4749V59.5096V59.5447V59.5802V59.6159V59.652V59.6885V59.7252V59.7623V59.7997V59.8374V59.8755V59.9139V59.9525V59.9915V60.0308V60.0705V60.1104V60.1506V60.1912V60.232V60.2732V60.3146V60.3564V60.3984V60.4407V60.4834V60.5263V60.5695V60.613V60.6567V60.7008V60.7451V60.7898V60.8347V60.8798V60.9253V60.971V61.017V61.0633V61.1098V61.1566V61.2036V61.2509V61.2985V61.3463V61.3944V61.4427V61.4913V61.5402V61.5893V61.6386V61.6882V61.738V61.7881V61.8383V61.8889V61.9397V61.9907V62.0419V62.0934V62.1451V62.197V62.2491V62.3015V62.3541V62.4069V62.4599V62.5131V62.5666V62.6202V62.6741V62.7282V62.7824V62.8369V62.8916V62.9465V63.0016V63.0569V63.1123V63.168V63.2239V63.2799V63.3361V63.3926V63.4492V63.506V63.5629V63.6201V63.6774V63.7349V63.7925V63.8504V63.9084V63.9665V64.0249V64.0834V64.142V64.2008V64.2598V64.3189V64.3782V64.4377V64.4973V64.557V64.6169V64.6769V64.7371V64.7974V64.8578V64.9184V64.9791V65.04V65.101V65.1621V65.2234V65.2847V65.3462V65.4078V65.4696V65.5314V65.5934V65.6555V65.7177V65.78V65.8424V65.905V65.9676V66.0303V66.0932V66.1561V66.2192V66.2823V66.3455V66.4089V66.4723V66.5358V66.5994V66.6631V66.7268V66.7907V66.8546V66.9186V66.9827V67.0468V67.1111V67.1754V67.2397V67.3042V67.3687V67.4332V67.4978V67.5625V67.6273V67.6921V67.7569V67.8218V67.8868V67.9518V68.0168V68.0819V68.1471V68.2122V68.2775V68.3427V68.408V68.4733V68.5387V68.6041V68.6695V68.7349V68.8004V68.8659V68.9314V68.9969V69.0625V69.128V69.1936V69.2592V69.3248V69.3904V69.456V69.5216V69.5872V69.6529V69.7185V69.7841V69.8497V69.9153V69.9809V70.0465V70.1121V70.1776V70.2432V70.3087V70.3742V70.4397V70.5051V70.5706V70.636V70.7013V70.7667V70.832V70.8973V70.9625V71.0277V71.0929V71.158V71.2231V71.2881V71.3531V71.4181V71.483V71.5478V71.6126V71.6773V71.742V71.8066V71.8711V71.9356V72V72.0643V72.1286V72.1928V72.257V72.321V72.385V72.4489V72.5127V72.5764V72.6401V72.7037V72.7672V72.8305V72.8938V72.957V73.0201V73.0832V73.1461V73.2089V73.2716V73.3342V73.3967V73.4591V73.5214V73.5835V73.6456V73.7075V73.7693V73.831V73.8926V73.9541V74.0154V74.0766V74.1377V74.1986V74.2595V74.3201V74.3807V74.4411V74.5014V74.5615V74.6215V74.6813V74.741V74.8005V74.8599V74.9192V74.9782V75.0372V75.0959V75.1545V75.213V75.2713V75.3294V75.3874V75.4451V75.5027V75.5602V75.6174V75.6745V75.7314V75.7882V75.8447V75.9011V75.9573V76.0132V76.069V76.1246V76.1801V76.2353V76.2903V76.3451V76.3997V76.4542V76.5084V76.5624V76.6162V76.6698V76.7232V76.7763V76.8293V76.882V76.9345V76.9868V77.0389V77.0908V77.1424V77.1938V77.2449V77.2959V77.3466V77.397V77.4473V77.4973V77.547V77.5965V77.6458V77.6948V77.7435V77.792V77.8403V77.8883V77.9361V77.9835V78.0308V78.0777V78.1245V78.1709V78.2171V78.263V78.3086V78.354V78.3991V78.4439V78.4884V78.5327V78.5766V78.6203V78.6637V78.7068V78.7497V78.7922V78.8344V78.8764V78.918V78.9594V79.0005V79.0412V79.0816V79.1218V79.1616V79.2011V79.2404V79.2793V79.3178V79.3561V79.3941V79.4317V79.469V79.506V79.5426V79.579V79.615V79.6506V79.686V79.721V79.7556V79.7899V79.8239V79.8576V79.8909V79.9238V79.9564V79.9887V80.0206V80.0521V80.0833V80.1141V80.1446V80.1747V80.2045V80.2338V80.2629V80.2915V80.3198V80.3477V80.3752V80.4024V80.4291V80.4555V80.4816V80.5072V80.5324V80.5573V80.5818V80.6059V80.6295V80.6528V80.6757V80.6982V80.7203V80.742V80.7633V80.7842V80.8047V80.8248V80.8445V80.8637V80.8825V80.901V80.919V80.9365V80.9537V80.9704V80.9867V81.0026V81.0181V81.0331V81.0477V81.0618V81.0755V81.0888V81.1017V81.1141V81.126V81.1375V81.1486V81.1592V81.1693V81.179V81.1883V81.1971V81.2054V81.2133V81.2207V81.2276V81.2341V81.2401V81.2456V81.2507V81.2553V81.2594V81.263V81.2662V81.2689V81.2711V81.2728V81.274V81.2748C68.5476 81.2749 68.5476 81.275 69.0476 81.275H68.5476V81.775H69.0476H83.3333ZM11.9048 0.5H88.0952C94.4024 0.5 99.5 5.48946 99.5 11.6107V85.9193C99.5 92.0405 94.4024 97.03 88.0952 97.03H11.9048C5.59761 97.03 0.5 92.0405 0.5 85.9193V11.6107C0.5 5.48946 5.59761 0.5 11.9048 0.5Z" />
</svg>
